<svg width="390" height="696" viewBox="0 0 390 696" fill="none" xmlns="http://www.w3.org/2000/svg">
<path d="M667.816 385.276L667.816 385.276L242.866 -38.734C215.973 -65.627 189.082 -79.217 162.204 -79.3693C135.324 -79.5215 108.577 -66.2339 81.973 -39.6301L-67.5933 109.936L-67.9451 110.288L-67.5951 110.641L12.8785 191.922L13.2367 192.283L13.5919 191.919L38.9574 165.89L459.837 587.575L437.383 610.029L437.035 610.377L437.378 610.73L518.882 694.789L519.23 695.148L519.589 694.799L669.021 549.848L669.026 549.843C696.191 522.701 709.736 495.371 709.533 467.875C709.33 440.381 695.381 412.841 667.816 385.276Z" stroke="#2B2B2B"/>
</svg>
