<svg width="385" height="237" viewBox="0 0 385 237" fill="none" xmlns="http://www.w3.org/2000/svg">
<g opacity="0.3">
<path d="M2.14425 3.05736C5.92091 6.83403 5.95912 10.5788 2.25251 14.2886L-7.67 24.2111L-13.5643 18.4283L-12.0039 16.868L-40.9562 -12.1448L-42.714 -10.3393L-48.2421 -15.9215L-38.0139 -26.1497C-34.3837 -29.7799 -30.7249 -29.7544 -27.0342 -26.0637L2.14425 3.05736Z" stroke="#981DB9" stroke-miterlimit="10"/>
<path d="M42.3915 -26.7038C46.0822 -30.3945 49.7379 -30.4199 53.3712 -26.7898L63.5994 -16.5616L58.0714 -10.9794L56.3136 -12.7849L27.3613 16.2279L28.9216 17.7883L23.0273 23.5711L13.1049 13.6486C9.39824 9.94197 9.43328 6.19715 13.2131 2.4173L42.3915 -26.7038Z" stroke="#981DB9" stroke-miterlimit="10"/>
<path d="M-78.8216 -6.42889C-82.5983 -10.2056 -82.6365 -13.9504 -78.9299 -17.6602L-69.0074 -27.5827L-63.1131 -21.7999L-64.6734 -20.2395L-35.7211 8.7733L-33.9634 6.96776L-28.4353 12.55L-38.6635 22.7782C-42.2937 26.4084 -45.9525 26.3829 -49.6432 22.6922L-78.8216 -6.42889Z" stroke="#981DB9" stroke-miterlimit="10"/>
<path d="M70.5254 -6.42889C66.7488 -10.2056 66.7106 -13.9504 70.4172 -17.6602L80.3397 -27.5827L86.2339 -21.7999L84.6736 -20.2395L113.626 8.7733L115.384 6.96776L120.912 12.55L110.684 22.7782C107.053 26.4084 103.395 26.3829 99.7038 22.6922L70.5254 -6.42889Z" stroke="#981DB9" stroke-miterlimit="10"/>
<path d="M155.313 1.78361C159.089 5.56028 159.127 9.30509 155.421 13.0149L145.498 22.9374L139.604 17.1546L141.164 15.5942L112.212 -13.4186L110.454 -11.613L104.926 -17.1952L115.154 -27.4235C118.785 -31.0536 122.443 -31.0282 126.134 -27.3375L155.313 1.78361Z" stroke="#981DB9" stroke-miterlimit="10"/>
<path d="M195.56 -27.9775C199.251 -31.6682 202.906 -31.6937 206.54 -28.0635L216.768 -17.8353L211.24 -12.2531L209.482 -14.0586L180.53 14.9542L182.09 16.5145L176.196 22.2973L166.273 12.3748C162.567 8.66822 162.602 4.9234 166.381 1.14355L195.56 -27.9775Z" stroke="#981DB9" stroke-miterlimit="10"/>
<path d="M223.694 -7.70263C219.917 -11.4793 219.879 -15.2241 223.585 -18.9339L233.508 -28.8564L239.402 -23.0736L237.842 -21.5133L266.794 7.49956L268.552 5.69402L274.08 11.2762L263.852 21.5044C260.222 25.1346 256.563 25.1091 252.872 21.4184L223.694 -7.70263Z" stroke="#981DB9" stroke-miterlimit="10"/>
<path d="M303.067 -1.7192C306.844 2.05747 306.882 5.80229 303.176 9.51208L293.253 19.4346L287.359 13.6518L288.919 12.0914L259.967 -16.9214L258.209 -15.1159L252.681 -20.6981L262.909 -30.9263C266.539 -34.5564 270.198 -34.531 273.889 -30.8403L303.067 -1.7192Z" stroke="#981DB9" stroke-miterlimit="10"/>
<path d="M449.549 -6.8142C453.325 -3.03753 453.363 0.70729 449.657 4.41708L439.734 14.3396L433.84 8.55677L435.4 6.99643L406.448 -22.0164L404.69 -20.2109L399.162 -25.7931L409.39 -36.0213C413.021 -39.6514 416.679 -39.626 420.37 -35.9353L449.549 -6.8142Z" stroke="#981DB9" stroke-miterlimit="10"/>
<path d="M343.315 -31.4803C347.005 -35.171 350.664 -35.1965 354.294 -31.5663L364.523 -21.3381L358.995 -15.7559L357.237 -17.5615L328.284 11.4514L329.845 13.0117L323.951 18.7945L314.028 8.87202C310.321 5.16541 310.356 1.42059 314.136 -2.35926L343.315 -31.4803Z" stroke="#981DB9" stroke-miterlimit="10"/>
<path d="M371.449 -11.2054C367.672 -14.9821 367.634 -18.7269 371.34 -22.4367L381.263 -32.3592L387.157 -26.5764L385.597 -25.0161L414.549 3.99675L416.307 2.19121L421.835 7.77341L411.607 18.0016C407.977 21.6318 404.318 21.6063 400.627 17.9156L371.449 -11.2054Z" stroke="#981DB9" stroke-miterlimit="10"/>
<path d="M6.28393 67.4326C10.0606 71.2093 10.0988 74.9541 6.39219 78.6639L-3.5303 88.5864L-9.42459 82.8036L-7.86424 81.2432L-36.8166 52.2304L-38.5743 54.036L-44.1024 48.4538L-33.8742 38.2256C-30.244 34.5954 -26.5852 34.6209 -22.8945 38.3115L6.28393 67.4326Z" stroke="#981DB9" stroke-miterlimit="10"/>
<path d="M46.5312 37.6747C50.2219 33.984 53.8776 33.9585 57.5109 37.5887L67.7391 47.8169L62.2111 53.3991L60.4533 51.5936L31.501 80.6064L33.0613 82.1667L27.167 87.9495L17.2445 78.027C13.5379 74.3204 13.573 70.5756 17.3528 66.7957L46.5312 37.6747Z" stroke="#981DB9" stroke-miterlimit="10"/>
<path d="M-74.6819 57.9496C-78.4586 54.1729 -78.4968 50.4281 -74.7902 46.7183L-64.8677 36.7958L-58.9734 42.5786L-60.5338 44.1389L-31.5814 73.1518L-29.8237 71.3462L-24.2924 76.9284L-34.5206 87.1566C-38.1508 90.7868 -41.8096 90.7613 -45.5003 87.0706L-74.6819 57.9496Z" stroke="#981DB9" stroke-miterlimit="10"/>
<path d="M74.6651 57.9496C70.8885 54.1729 70.8503 50.4281 74.5569 46.7183L84.4794 36.7958L90.3736 42.5786L88.8133 44.1389L117.766 73.1518L119.523 71.3462L125.055 76.9284L114.826 87.1566C111.196 90.7868 107.537 90.7613 103.847 87.0706L74.6651 57.9496Z" stroke="#981DB9" stroke-miterlimit="10"/>
<path d="M159.452 66.1589C163.229 69.9355 163.267 73.6804 159.56 77.3902L149.638 87.3127L143.744 81.5298L145.304 79.9695L116.352 50.9567L114.594 52.7622L109.066 47.18L119.294 36.9518C122.924 33.3216 126.583 33.3471 130.274 37.0378L159.452 66.1589Z" stroke="#981DB9" stroke-miterlimit="10"/>
<path d="M199.7 36.4009C203.39 32.7102 207.046 32.6848 210.679 36.3149L220.907 46.5431L215.379 52.1253L213.622 50.3198L184.669 79.3326L186.23 80.893L180.335 86.6758L170.413 76.7533C166.706 73.0467 166.741 69.3018 170.521 65.522L199.7 36.4009Z" stroke="#981DB9" stroke-miterlimit="10"/>
<path d="M227.833 56.6758C224.057 52.8991 224.019 49.1543 227.725 45.4445L237.648 35.522L243.542 41.3049L241.982 42.8652L270.934 71.878L272.692 70.0725L278.22 75.6547L267.992 85.8829C264.361 89.5131 260.703 89.4876 257.012 85.7969L227.833 56.6758Z" stroke="#981DB9" stroke-miterlimit="10"/>
<path d="M307.207 62.6561C310.984 66.4327 311.022 70.1776 307.315 73.8873L297.393 83.8098L291.499 78.027L293.059 76.4667L264.107 47.4539L262.349 49.2594L256.821 43.6772L267.049 33.449C270.679 29.8188 274.338 29.8443 278.029 33.535L307.207 62.6561Z" stroke="#981DB9" stroke-miterlimit="10"/>
<path d="M453.688 57.5611C457.465 61.3377 457.503 65.0826 453.796 68.7924L443.874 78.7148L437.98 72.932L439.54 71.3717L410.588 42.3589L408.83 44.1644L403.302 38.5822L413.53 28.354C417.16 24.7238 420.819 24.7493 424.51 28.44L453.688 57.5611Z" stroke="#981DB9" stroke-miterlimit="10"/>
<path d="M347.454 32.8981C351.145 29.2074 354.804 29.182 358.434 32.8121L368.662 43.0403L363.134 48.6225L361.376 46.817L332.424 75.8298L333.984 77.3902L328.09 83.173L318.168 73.2505C314.461 69.5439 314.496 65.799 318.276 62.0192L347.454 32.8981Z" stroke="#981DB9" stroke-miterlimit="10"/>
<path d="M375.588 53.173C371.812 49.3963 371.773 45.6515 375.48 41.9417L385.403 32.0192L391.297 37.802L389.737 39.3624L418.689 68.3752L420.447 66.5697L425.975 72.1519L415.746 82.3801C412.116 86.0102 408.457 85.9848 404.767 82.2941L375.588 53.173Z" stroke="#981DB9" stroke-miterlimit="10"/>
<path d="M6.28393 137.966C10.0606 141.743 10.0988 145.488 6.39219 149.198L-3.5303 159.12L-9.42459 153.337L-7.86424 151.777L-36.8166 122.764L-38.5743 124.57L-44.1024 118.988L-33.8742 108.759C-30.244 105.129 -26.5852 105.155 -22.8945 108.845L6.28393 137.966Z" stroke="#981DB9" stroke-miterlimit="10"/>
<path d="M46.5312 108.209C50.2219 104.518 53.8776 104.492 57.5109 108.123L67.7391 118.351L62.2111 123.933L60.4533 122.127L31.501 151.14L33.0613 152.701L27.167 158.483L17.2445 148.561C13.5379 144.854 13.573 141.109 17.3528 137.33L46.5312 108.209Z" stroke="#981DB9" stroke-miterlimit="10"/>
<path d="M-74.6819 128.483C-78.4586 124.707 -78.4968 120.962 -74.7902 117.252L-64.8677 107.33L-58.9734 113.112L-60.5338 114.673L-31.5814 143.686L-29.8237 141.88L-24.2956 147.462L-34.5238 157.69C-38.154 161.321 -41.8128 161.295 -45.5035 157.604L-74.6819 128.483Z" stroke="#981DB9" stroke-miterlimit="10"/>
<path d="M74.6651 128.483C70.8885 124.707 70.8503 120.962 74.5569 117.252L84.4794 107.33L90.3736 113.112L88.8133 114.673L117.766 143.686L119.523 141.88L125.051 147.462L114.823 157.69C111.193 161.321 107.534 161.295 103.844 157.604L74.6651 128.483Z" stroke="#981DB9" stroke-miterlimit="10"/>
<path d="M159.452 136.693C163.229 140.469 163.267 144.214 159.56 147.924L149.638 157.847L143.744 152.064L145.304 150.503L116.352 121.491L114.594 123.296L109.066 117.714L119.294 107.486C122.924 103.855 126.583 103.881 130.274 107.572L159.452 136.693Z" stroke="#981DB9" stroke-miterlimit="10"/>
<path d="M199.7 107.572C203.39 103.881 207.046 103.855 210.679 107.486L220.908 117.714L215.379 123.296L213.622 121.491L184.669 150.503L186.23 152.064L180.335 157.847L170.413 147.924C166.706 144.217 166.741 140.473 170.521 136.693L199.7 107.572Z" stroke="#981DB9" stroke-miterlimit="10"/>
<path d="M227.833 127.21C224.057 123.433 224.019 119.688 227.725 115.978L237.648 106.056L243.542 111.839L241.982 113.399L270.934 142.412L272.692 140.606L278.22 146.189L267.992 156.417C264.361 160.047 260.703 160.021 257.012 156.331L227.833 127.21Z" stroke="#981DB9" stroke-miterlimit="10"/>
<path d="M307.207 133.19C310.984 136.967 311.022 140.711 307.315 144.421L297.393 154.344L291.499 148.561L293.059 147.001L264.107 117.988L262.349 119.793L256.821 114.211L267.049 103.983C270.679 100.353 274.338 100.378 278.029 104.069L307.207 133.19Z" stroke="#981DB9" stroke-miterlimit="10"/>
<path d="M453.688 128.095C457.465 131.872 457.503 135.616 453.796 139.326L443.874 149.249L437.98 143.466L439.54 141.906L410.588 112.893L408.83 114.698L403.302 109.116L413.53 98.8879C417.16 95.2577 420.819 95.2832 424.51 98.9738L453.688 128.095Z" stroke="#981DB9" stroke-miterlimit="10"/>
<path d="M347.454 103.432C351.145 99.7413 354.804 99.7158 358.434 103.346L368.662 113.574L363.134 119.156L361.376 117.351L332.424 146.364L333.984 147.924L328.09 153.707L318.168 143.784C314.461 140.078 314.496 136.333 318.276 132.553L347.454 103.432Z" stroke="#981DB9" stroke-miterlimit="10"/>
<path d="M375.588 123.707C371.812 119.93 371.773 116.185 375.48 112.476L385.403 102.553L391.297 108.336L389.737 109.896L418.689 138.909L420.447 137.104L425.975 142.686L415.746 152.914C412.116 156.544 408.457 156.519 404.767 152.828L375.588 123.707Z" stroke="#981DB9" stroke-miterlimit="10"/>
<path d="M6.92081 206.803C10.6975 210.58 10.7357 214.325 7.02907 218.034L-2.89343 227.957L-8.78772 222.174L-7.22737 220.614L-36.1797 191.601L-37.9375 193.406L-43.4655 187.824L-33.2373 177.596C-29.6071 173.966 -25.9483 173.991 -22.2576 177.682L6.92081 206.803Z" stroke="#981DB9" stroke-miterlimit="10"/>
<path d="M47.1681 177.045C50.8588 173.354 54.5144 173.329 58.1478 176.959L68.376 187.187L62.8479 192.77L61.0902 190.964L32.1379 219.977L33.6982 221.537L27.8039 227.32L17.8814 217.397C14.1748 213.691 14.2098 209.946 17.9897 206.166L47.1681 177.045Z" stroke="#981DB9" stroke-miterlimit="10"/>
<path d="M-74.0451 197.32C-77.8217 193.543 -77.8599 189.798 -74.1533 186.089L-64.2308 176.166L-58.3365 181.949L-59.8969 183.509L-30.9446 212.522L-29.1868 210.717L-23.6587 216.299L-33.8869 226.527C-37.5171 230.157 -41.176 230.132 -44.8666 226.441L-74.0451 197.32Z" stroke="#981DB9" stroke-miterlimit="10"/>
<path d="M75.302 197.32C71.5253 193.543 71.4871 189.798 75.1937 186.089L85.1162 176.166L91.0105 181.949L89.4502 183.509L118.402 212.522L120.16 210.717L125.688 216.299L115.46 226.527C111.83 230.157 108.171 230.132 104.48 226.441L75.302 197.32Z" stroke="#981DB9" stroke-miterlimit="10"/>
<path d="M160.089 205.529C163.866 209.306 163.904 213.051 160.197 216.761L150.275 226.683L144.381 220.9L145.941 219.34L116.989 190.327L115.231 192.133L109.703 186.55L119.931 176.322C123.561 172.692 127.22 172.718 130.911 176.408L160.089 205.529Z" stroke="#981DB9" stroke-miterlimit="10"/>
<path d="M200.336 175.771C204.027 172.081 207.683 172.055 211.316 175.685L221.544 185.914L216.016 191.496L214.258 189.69L185.306 218.703L186.866 220.263L180.972 226.046L171.05 216.124C167.343 212.417 167.378 208.672 171.158 204.892L200.336 175.771Z" stroke="#981DB9" stroke-miterlimit="10"/>
<path d="M228.47 196.046C224.694 192.27 224.655 188.525 228.362 184.815L238.285 174.892L244.179 180.675L242.618 182.236L271.571 211.248L273.329 209.443L278.857 215.025L268.628 225.253C264.998 228.883 261.339 228.858 257.649 225.167L228.47 196.046Z" stroke="#981DB9" stroke-miterlimit="10"/>
<path d="M307.844 202.026C311.621 205.803 311.659 209.548 307.952 213.258L298.03 223.18L292.135 217.397L293.696 215.837L264.744 186.824L262.986 188.63L257.458 183.048L267.686 172.819C271.316 169.189 274.975 169.215 278.666 172.905L307.844 202.026Z" stroke="#981DB9" stroke-miterlimit="10"/>
<path d="M454.325 196.931C458.102 200.708 458.14 204.453 454.433 208.163L444.511 218.085L438.617 212.302L440.177 210.742L411.225 181.729L409.467 183.535L403.939 177.953L414.167 167.724C417.797 164.094 421.456 164.12 425.147 167.81L454.325 196.931Z" stroke="#981DB9" stroke-miterlimit="10"/>
<path d="M348.091 172.269C351.782 168.578 355.441 168.552 359.071 172.183L369.299 182.411L363.771 187.993L362.013 186.187L333.061 215.2L334.621 216.761L328.727 222.543L318.805 212.621C315.098 208.914 315.133 205.169 318.913 201.39L348.091 172.269Z" stroke="#981DB9" stroke-miterlimit="10"/>
<path d="M376.225 192.543C372.449 188.767 372.41 185.022 376.117 181.312L386.039 171.39L391.934 177.172L390.373 178.733L419.326 207.746L421.083 205.94L426.612 211.522L416.383 221.75C412.753 225.381 409.094 225.355 405.404 221.665L376.225 192.543Z" stroke="#981DB9" stroke-miterlimit="10"/>
<path d="M-78.9267 199.32C-75.15 203.096 -75.1118 206.841 -78.8184 210.551L-88.7409 220.474L-94.6352 214.691L-93.0749 213.13L-122.027 184.118L-123.785 185.923L-129.313 180.341L-119.085 170.113C-115.455 166.483 -111.796 166.508 -108.105 170.199L-78.9267 199.32Z" stroke="#981DB9" stroke-miterlimit="10"/>
<path d="M-157.027 194.932C-160.803 191.155 -160.841 187.41 -157.135 183.7L-147.212 173.778L-141.318 179.561L-142.878 181.121L-113.926 210.134L-112.168 208.328L-106.64 213.911L-116.862 224.139C-120.492 227.769 -124.151 227.743 -127.842 224.053L-157.027 194.932Z" stroke="#981DB9" stroke-miterlimit="10"/>
<path d="M-77.6529 130.483C-73.8763 134.26 -73.8381 138.005 -77.5447 141.714L-87.4672 151.637L-93.3615 145.854L-91.8011 144.294L-120.753 115.281L-122.511 117.087L-128.039 111.504L-117.811 101.276C-114.181 97.646 -110.522 97.6714 -106.831 101.362L-77.6529 130.483Z" stroke="#981DB9" stroke-miterlimit="10"/>
<path d="M-155.753 126.095C-159.53 122.318 -159.568 118.574 -155.861 114.864L-145.939 104.941L-140.044 110.724L-141.605 112.285L-112.652 141.297L-110.895 139.492L-105.36 145.074L-115.588 155.302C-119.219 158.932 -122.877 158.907 -126.568 155.216L-155.753 126.095Z" stroke="#981DB9" stroke-miterlimit="10"/>
<path d="M-82.7479 59.9493C-78.9713 63.726 -78.9331 67.4708 -82.6397 71.1806L-92.5622 81.1031L-98.4565 75.3203L-96.8961 73.76L-125.848 44.7472L-127.606 46.5527L-133.134 40.9705L-122.906 30.7423C-119.276 27.1121 -115.617 27.1376 -111.926 30.8283L-82.7479 59.9493Z" stroke="#981DB9" stroke-miterlimit="10"/>
<path d="M-160.848 55.5613C-164.625 51.7846 -164.663 48.0398 -160.956 44.33L-151.034 34.4075L-145.139 40.1903L-146.7 41.7507L-117.747 70.7635L-115.99 68.9579L-110.462 74.5401L-120.69 84.7683C-124.32 88.3985 -127.979 88.3731 -131.669 84.6824L-160.848 55.5613Z" stroke="#981DB9" stroke-miterlimit="10"/>
<path d="M-88.7982 -4.42592C-85.0216 -0.649254 -84.9834 3.09557 -88.69 6.80536L-98.6125 16.7279L-104.507 10.945L-102.946 9.38471L-131.899 -19.6281L-133.656 -17.8226L-139.188 -23.408L-128.96 -33.6362C-125.329 -37.2663 -121.671 -37.2409 -117.98 -33.5502L-88.7982 -4.42592Z" stroke="#981DB9" stroke-miterlimit="10"/>
<path d="M-166.898 -8.81716C-170.675 -12.5938 -170.713 -16.3387 -167.006 -20.0484L-157.084 -29.971L-151.19 -24.1881L-152.75 -22.6278L-123.798 6.38503L-122.04 4.57949L-116.512 10.1617L-126.74 20.3899C-130.37 24.0201 -134.029 23.9946 -137.72 20.3039L-166.898 -8.81716Z" stroke="#981DB9" stroke-miterlimit="10"/>
<path d="M-79.2451 267.306C-75.4685 271.083 -75.4303 274.828 -79.1369 278.537L-89.0594 288.46L-94.9536 282.677L-93.3933 281.117L-122.346 252.104L-124.103 253.909L-129.631 248.327L-119.403 238.099C-115.773 234.469 -112.114 234.494 -108.424 238.185L-79.2451 267.306Z" stroke="#981DB9" stroke-miterlimit="10"/>
<path d="M-157.345 262.918C-161.122 259.141 -161.16 255.397 -157.453 251.687L-147.531 241.764L-141.637 247.547L-143.197 249.107L-114.245 278.12L-112.487 276.315L-106.959 281.897L-117.187 292.125C-120.817 295.755 -124.476 295.73 -128.167 292.039L-157.345 262.918Z" stroke="#981DB9" stroke-miterlimit="10"/>
<path d="M550.624 199.32C554.4 203.096 554.439 206.841 550.732 210.551L540.809 220.474L534.915 214.691L536.476 213.13L507.523 184.118L505.765 185.923L500.237 180.341L510.466 170.113C514.096 166.483 517.755 166.508 521.445 170.199L550.624 199.32Z" stroke="#981DB9" stroke-miterlimit="10"/>
<path d="M472.524 194.932C468.747 191.155 468.709 187.41 472.415 183.7L482.338 173.778L488.232 179.561L486.672 181.121L515.624 210.134L517.382 208.328L522.91 213.911L512.682 224.139C509.052 227.769 505.393 227.743 501.702 224.053L472.524 194.932Z" stroke="#981DB9" stroke-miterlimit="10"/>
<path d="M551.897 130.483C555.674 134.26 555.712 138.005 552.006 141.714L542.083 151.637L536.189 145.854L537.749 144.294L508.797 115.281L507.039 117.087L501.511 111.504L511.739 101.276C515.369 97.646 519.028 97.6714 522.719 101.362L551.897 130.483Z" stroke="#981DB9" stroke-miterlimit="10"/>
<path d="M473.798 126.095C470.021 122.318 469.983 118.574 473.689 114.864L483.612 104.941L489.506 110.724L487.946 112.285L516.898 141.297L518.656 139.492L524.184 145.074L513.956 155.302C510.325 158.932 506.667 158.907 502.976 155.216L473.798 126.095Z" stroke="#981DB9" stroke-miterlimit="10"/>
<path d="M546.802 59.9493C550.579 63.726 550.617 67.4708 546.911 71.1806L536.988 81.1031L531.094 75.3203L532.654 73.76L503.702 44.7472L501.944 46.5527L496.416 40.9705L506.644 30.7423C510.274 27.1121 513.933 27.1376 517.624 30.8283L546.802 59.9493Z" stroke="#981DB9" stroke-miterlimit="10"/>
<path d="M468.703 55.5613C464.926 51.7846 464.888 48.0398 468.594 44.33L478.517 34.4075L484.411 40.1903L482.851 41.7507L511.803 70.7635L513.561 68.9579L519.089 74.5401L508.861 84.7683C505.23 88.3985 501.572 88.3731 497.881 84.6824L468.703 55.5613Z" stroke="#981DB9" stroke-miterlimit="10"/>
<path d="M540.752 -4.42592C544.529 -0.649252 544.567 3.09557 540.86 6.80536L530.938 16.7279L525.044 10.945L526.604 9.38471L497.652 -19.6281L495.894 -17.8226L490.366 -23.4048L500.594 -33.633C504.224 -37.2632 507.883 -37.2377 511.574 -33.547L540.752 -4.42592Z" stroke="#981DB9" stroke-miterlimit="10"/>
<path d="M462.652 -8.81716C458.876 -12.5938 458.837 -16.3387 462.544 -20.0484L472.466 -29.971L478.361 -24.1881L476.8 -22.6278L505.753 6.38503L507.51 4.57949L513.039 10.1617L502.81 20.3899C499.18 24.0201 495.521 23.9946 491.831 20.3039L462.652 -8.81716Z" stroke="#981DB9" stroke-miterlimit="10"/>
<path d="M550.305 267.306C554.082 271.083 554.12 274.828 550.413 278.537L540.491 288.46L534.597 282.677L536.157 281.117L507.205 252.104L505.447 253.909L499.919 248.327L510.147 238.099C513.777 234.469 517.436 234.494 521.127 238.185L550.305 267.306Z" stroke="#981DB9" stroke-miterlimit="10"/>
<path d="M472.205 262.918C468.429 259.141 468.39 255.397 472.097 251.687L482.02 241.764L487.914 247.547L486.354 249.107L515.306 278.12L517.064 276.315L522.592 281.897L512.363 292.125C508.733 295.755 505.074 295.73 501.384 292.039L472.205 262.918Z" stroke="#981DB9" stroke-miterlimit="10"/>
<path d="M7.55768 274.789C11.3343 278.566 11.3725 282.311 7.66594 286.021L-2.25656 295.943L-8.15084 290.16L-6.59048 288.6L-35.5428 259.587L-37.3006 261.393L-42.8287 255.811L-32.6005 245.582C-28.9703 241.952 -25.3114 241.978 -21.6207 245.668L7.55768 274.789Z" stroke="#981DB9" stroke-miterlimit="10"/>
<path d="M47.805 245.031C51.4957 241.341 55.1513 241.315 58.7847 244.945L69.0129 255.174L63.4848 260.756L61.727 258.95L32.7747 287.963L34.3351 289.523L28.4408 295.306L18.5183 285.384C14.8117 281.677 14.8467 277.932 18.6266 274.152L47.805 245.031Z" stroke="#981DB9" stroke-miterlimit="10"/>
<path d="M-73.4082 265.306C-77.1848 261.53 -77.2231 257.785 -73.5164 254.075L-63.5939 244.153L-57.6997 249.935L-59.26 251.496L-30.3077 280.509L-28.5499 278.703L-23.0219 284.285L-33.2501 294.513C-36.8802 298.144 -40.5391 298.118 -44.2298 294.427L-73.4082 265.306Z" stroke="#981DB9" stroke-miterlimit="10"/>
<path d="M75.9389 265.306C72.1622 261.53 72.124 257.785 75.8306 254.075L85.7531 244.153L91.6474 249.935L90.087 251.496L119.039 280.509L120.797 278.703L126.325 284.285L116.097 294.513C112.467 298.144 108.808 298.118 105.117 294.427L75.9389 265.306Z" stroke="#981DB9" stroke-miterlimit="10"/>
<path d="M160.726 273.516C164.503 277.292 164.541 281.037 160.834 284.747L150.912 294.669L145.017 288.887L146.578 287.326L117.626 258.313L115.868 260.119L110.34 254.537L120.568 244.309C124.198 240.678 127.857 240.704 131.548 244.395L160.726 273.516Z" stroke="#981DB9" stroke-miterlimit="10"/>
<path d="M200.973 243.758C204.664 240.067 208.32 240.042 211.953 243.672L222.181 253.9L216.653 259.482L214.895 257.677L185.943 286.689L187.503 288.25L181.609 294.033L171.687 284.11C167.98 280.403 168.015 276.659 171.795 272.879L200.973 243.758Z" stroke="#981DB9" stroke-miterlimit="10"/>
<path d="M229.107 264.033C225.331 260.256 225.292 256.511 228.999 252.801L238.921 242.879L244.816 248.662L243.255 250.222L272.208 279.235L273.965 277.429L279.494 283.011L269.265 293.24C265.635 296.87 261.976 296.844 258.286 293.154L229.107 264.033Z" stroke="#981DB9" stroke-miterlimit="10"/>
<path d="M308.481 270.013C312.258 273.789 312.296 277.534 308.589 281.244L298.667 291.167L292.772 285.384L294.333 283.823L265.38 254.811L263.623 256.616L258.095 251.034L268.323 240.806C271.953 237.176 275.612 237.201 279.302 240.892L308.481 270.013Z" stroke="#981DB9" stroke-miterlimit="10"/>
<path d="M454.962 264.918C458.739 268.694 458.777 272.439 455.07 276.149L445.148 286.072L439.253 280.289L440.814 278.728L411.862 249.716L410.104 251.521L404.576 245.939L414.804 235.711C418.434 232.081 422.093 232.106 425.784 235.797L454.962 264.918Z" stroke="#981DB9" stroke-miterlimit="10"/>
<path d="M348.728 240.255C352.419 236.564 356.078 236.539 359.708 240.169L369.936 250.397L364.408 255.979L362.65 254.174L333.698 283.187L335.258 284.747L329.364 290.53L319.441 280.607C315.735 276.901 315.77 273.156 319.55 269.376L348.728 240.255Z" stroke="#981DB9" stroke-miterlimit="10"/>
<path d="M376.862 260.53C373.085 256.753 373.047 253.008 376.754 249.298L386.676 239.376L392.571 245.159L391.01 246.719L419.963 275.732L421.72 273.926L427.248 279.509L417.02 289.737C413.39 293.367 409.731 293.342 406.04 289.651L376.862 260.53Z" stroke="#981DB9" stroke-miterlimit="10"/>
</g>
</svg>
