<svg width="390" height="681" viewBox="0 0 390 681" fill="none" xmlns="http://www.w3.org/2000/svg">
<path d="M-277.556 311.567L-277.555 311.567L149.187 737.414C149.188 737.414 149.188 737.414 149.188 737.414C176.215 764.441 203.195 778.121 230.128 778.329C257.064 778.538 283.834 765.273 310.438 738.669L460.005 589.102L460.357 588.751L460.006 588.397L379.174 506.758L378.816 506.397L378.461 506.761L353.096 532.789L-69.5761 109.268L-47.1225 86.8142L-46.7654 86.4572L-47.1259 86.1037L-133.335 1.55258L-133.688 1.20585L-134.039 1.55599L-279.124 146.642C-306.289 173.806 -319.8 201.17 -319.535 228.723C-319.27 256.272 -305.232 283.89 -277.556 311.567Z" stroke="#2B2B2B"/>
</svg>
