<svg width="218" height="300" viewBox="0 0 218 300" fill="none" xmlns="http://www.w3.org/2000/svg">
<path d="M205.226 258.226L205.226 258.226L108.983 299.01L12.741 258.227C5.6068 255.194 0.968262 248.208 0.968262 240.46V42.0567C0.968262 32.8696 7.4781 25.0698 16.4639 23.1466C22.4117 21.8753 28.5498 18.8657 31.7396 12.205L31.7399 12.2042C34.9496 5.47139 41.734 1.16895 49.2006 1.16895H168.782C176.248 1.16895 183.017 5.47089 186.243 12.2051C189.433 18.8657 195.571 21.8753 201.519 23.1467L201.52 23.1468C210.488 25.0536 216.998 32.8687 216.998 42.0567V240.46C216.998 248.208 212.359 255.21 205.226 258.226Z" fill="#1E1E1E" stroke="url(#paint0_linear_2510_1867)"/>
<defs>
<linearGradient id="paint0_linear_2510_1867" x1="0.468262" y1="151.678" x2="217.498" y2="151.678" gradientUnits="userSpaceOnUse">
<stop stop-color="#981DB9"/>
<stop offset="1" stop-color="#0F76CE"/>
</linearGradient>
</defs>
</svg>
