<svg width="53" height="41" viewBox="0 0 53 41" fill="none" xmlns="http://www.w3.org/2000/svg">
<path d="M23.9 33.3125H29.1V30.75H31.7C32.4367 30.75 33.0542 30.5044 33.5525 30.0133C34.0508 29.5221 34.3 28.9135 34.3 28.1875V20.5C34.3 19.774 34.0508 19.1654 33.5525 18.6742C33.0542 18.1831 32.4367 17.9375 31.7 17.9375H23.9V15.375H34.3V10.25H29.1V7.6875H23.9V10.25H21.3C20.5633 10.25 19.9458 10.4956 19.4475 10.9867C18.9492 11.4779 18.7 12.0865 18.7 12.8125V20.5C18.7 21.226 18.9492 21.8346 19.4475 22.3258C19.9458 22.8169 20.5633 23.0625 21.3 23.0625H29.1V25.625H18.7V30.75H23.9V33.3125ZM5.7 41C4.27 41 3.04583 40.4982 2.0275 39.4945C1.00917 38.4909 0.5 37.2844 0.5 35.875V5.125C0.5 3.71563 1.00917 2.50911 2.0275 1.50547C3.04583 0.501823 4.27 0 5.7 0H47.3C48.73 0 49.9542 0.501823 50.9725 1.50547C51.9908 2.50911 52.5 3.71563 52.5 5.125V35.875C52.5 37.2844 51.9908 38.4909 50.9725 39.4945C49.9542 40.4982 48.73 41 47.3 41H5.7ZM5.7 35.875H47.3V5.125H5.7V35.875Z" fill="url(#paint0_linear_517_1054)"/>
<defs>
<linearGradient id="paint0_linear_517_1054" x1="0.5" y1="20.7149" x2="52.5" y2="20.7149" gradientUnits="userSpaceOnUse">
<stop stop-color="#981DB9"/>
<stop offset="1" stop-color="#0F76CE"/>
</linearGradient>
</defs>
</svg>
