<svg width="61" height="54" viewBox="0 0 61 54" fill="none" xmlns="http://www.w3.org/2000/svg">
<path d="M9.15 54V48H51.85V54H9.15ZM9.15 43.5L5.26125 19.425C5.15958 19.425 5.04521 19.4375 4.91813 19.4625C4.79104 19.4875 4.67667 19.5 4.575 19.5C3.30417 19.5 2.22396 19.0625 1.33438 18.1875C0.444792 17.3125 0 16.25 0 15C0 13.75 0.444792 12.6875 1.33438 11.8125C2.22396 10.9375 3.30417 10.5 4.575 10.5C5.84583 10.5 6.92604 10.9375 7.81562 11.8125C8.70521 12.6875 9.15 13.75 9.15 15C9.15 15.35 9.11188 15.675 9.03563 15.975C8.95938 16.275 8.87042 16.55 8.76875 16.8L18.3 21L27.8312 8.175C27.2721 7.775 26.8146 7.25 26.4587 6.6C26.1029 5.95 25.925 5.25 25.925 4.5C25.925 3.25 26.3698 2.1875 27.2594 1.3125C28.149 0.4375 29.2292 0 30.5 0C31.7708 0 32.851 0.4375 33.7406 1.3125C34.6302 2.1875 35.075 3.25 35.075 4.5C35.075 5.25 34.8971 5.95 34.5412 6.6C34.1854 7.25 33.7279 7.775 33.1688 8.175L42.7 21L52.2313 16.8C52.1296 16.55 52.0406 16.275 51.9644 15.975C51.8881 15.675 51.85 15.35 51.85 15C51.85 13.75 52.2948 12.6875 53.1844 11.8125C54.074 10.9375 55.1542 10.5 56.425 10.5C57.6958 10.5 58.776 10.9375 59.6656 11.8125C60.5552 12.6875 61 13.75 61 15C61 16.25 60.5552 17.3125 59.6656 18.1875C58.776 19.0625 57.6958 19.5 56.425 19.5C56.3233 19.5 56.209 19.4875 56.0819 19.4625C55.9548 19.4375 55.8404 19.425 55.7387 19.425L51.85 43.5H9.15ZM14.335 37.5H46.665L48.6475 24.975L40.6413 28.425L30.5 14.7L20.3587 28.425L12.3525 24.975L14.335 37.5Z" fill="url(#paint0_linear_3508_2082)"/>
<defs>
<linearGradient id="paint0_linear_3508_2082" x1="28.1585" y1="1.02186e-06" x2="28.1585" y2="51.8234" gradientUnits="userSpaceOnUse">
<stop stop-color="#981DB9"/>
<stop offset="1" stop-color="#0F76CE"/>
</linearGradient>
</defs>
</svg>
