<svg width="59" height="59" viewBox="0 0 59 59" fill="none" xmlns="http://www.w3.org/2000/svg">
<path d="M13.5959 58.5V52.0556H26.4848V42.0667C23.8533 41.4759 21.5038 40.3616 19.4362 38.7236C17.3686 37.0857 15.8515 35.0315 14.8848 32.5611C10.857 32.0778 7.48712 30.319 4.77509 27.2847C2.06305 24.2505 0.707031 20.6926 0.707031 16.6111V13.3889C0.707031 11.6167 1.33805 10.0995 2.60009 8.8375C3.86212 7.57546 5.37925 6.94444 7.15148 6.94444H13.5959V0.5H45.8181V6.94444H52.2626C54.0348 6.94444 55.5519 7.57546 56.814 8.8375C58.076 10.0995 58.707 11.6167 58.707 13.3889V16.6111C58.707 20.6926 57.351 24.2505 54.639 27.2847C51.9269 30.319 48.557 32.0778 44.5293 32.5611C43.5626 35.0315 42.0455 37.0857 39.9779 38.7236C37.9103 40.3616 35.5607 41.4759 32.9293 42.0667V52.0556H45.8181V58.5H13.5959ZM13.5959 25.6333V13.3889H7.15148V16.6111C7.15148 18.6519 7.74222 20.4912 8.9237 22.1292C10.1052 23.7671 11.6626 24.9352 13.5959 25.6333ZM29.707 35.9444C32.3922 35.9444 34.6746 35.0046 36.5543 33.125C38.4339 31.2454 39.3737 28.963 39.3737 26.2778V6.94444H20.0404V26.2778C20.0404 28.963 20.9802 31.2454 22.8598 33.125C24.7394 35.0046 27.0218 35.9444 29.707 35.9444ZM45.8181 25.6333C47.7515 24.9352 49.3089 23.7671 50.4904 22.1292C51.6718 20.4912 52.2626 18.6519 52.2626 16.6111V13.3889H45.8181V25.6333Z" fill="url(#paint0_linear_517_1052)"/>
<defs>
<linearGradient id="paint0_linear_517_1052" x1="0.707031" y1="29.804" x2="58.707" y2="29.804" gradientUnits="userSpaceOnUse">
<stop stop-color="#981DB9"/>
<stop offset="1" stop-color="#0F76CE"/>
</linearGradient>
</defs>
</svg>
