<svg width="53" height="53" viewBox="0 0 53 53" fill="none" xmlns="http://www.w3.org/2000/svg">
<path d="M13.25 53V39.75H0V13.25H13.25V0H39.75V13.25H53V39.75H39.75V53H13.25ZM5.3 23.85H18.55C18.9917 23.85 19.4113 23.9604 19.8088 24.1813C20.2063 24.4021 20.5154 24.6892 20.7363 25.0425L23.055 28.4875L26.6325 17.755C26.8092 17.225 27.1294 16.7833 27.5931 16.43C28.0569 16.0767 28.5758 15.9 29.15 15.9C29.5917 15.9 30.0113 16.0104 30.4088 16.2313C30.8063 16.4521 31.1154 16.7392 31.3363 17.0925L35.8413 23.85H47.7V18.55H34.45V5.3H18.55V18.55H5.3V23.85ZM18.55 47.7H34.45V34.45H47.7V29.15H34.45C34.0083 29.15 33.5888 29.0396 33.1913 28.8188C32.7938 28.5979 32.4625 28.3108 32.1975 27.9575L29.945 24.5125L26.3675 35.245C26.1908 35.775 25.8596 36.2167 25.3738 36.57C24.8879 36.9233 24.3579 37.1 23.7838 37.1C23.3421 37.1 22.9225 36.9896 22.525 36.7688C22.1275 36.5479 21.8183 36.2608 21.5975 35.9075L17.0925 29.15H5.3V34.45H18.55V47.7Z" fill="url(#paint0_linear_517_1048)"/>
<defs>
<linearGradient id="paint0_linear_517_1048" x1="0" y1="26.7778" x2="53" y2="26.7778" gradientUnits="userSpaceOnUse">
<stop stop-color="#981DB9"/>
<stop offset="1" stop-color="#0F76CE"/>
</linearGradient>
</defs>
</svg>
