<svg width="214" height="278" viewBox="0 0 214 278" fill="none" xmlns="http://www.w3.org/2000/svg">
<g opacity="0.2">
<path d="M75.6746 42.3812C79.1596 45.8663 79.1949 49.322 75.7745 52.7453L66.6182 61.9016L61.179 56.5653L62.6189 55.1255L35.9021 28.3529L34.2801 30.019L29.1789 24.8678L38.6173 15.4294C41.9672 12.0795 45.3435 12.103 48.7492 15.5087L75.6746 42.3812Z" stroke="#981DB9" stroke-miterlimit="10"/>
<path d="M115.199 8.05073C118.605 4.64502 121.978 4.62151 125.331 7.97139L134.77 17.4098L129.668 22.561L128.046 20.8949L101.33 47.6675L102.769 49.1073L97.3303 54.4436L88.174 45.2873C84.7536 41.8669 84.786 38.4112 88.2739 34.9232L115.199 8.05073Z" stroke="#981DB9" stroke-miterlimit="10"/>
<path d="M146.262 20.7155C142.777 17.2304 142.741 13.7747 146.162 10.3514L155.318 1.19507L160.757 6.53136L159.317 7.97122L186.034 34.7438L187.656 33.0777L192.757 38.2289L183.319 47.6673C179.969 51.0172 176.593 50.9937 173.187 47.5879L146.262 20.7155Z" stroke="#981DB9" stroke-miterlimit="10"/>
<path d="M3.65976 93.7794C0.174712 90.2944 0.13946 86.8387 3.55986 83.4154L12.7162 74.2591L18.1553 79.5954L16.7155 81.0352L43.4322 107.808L45.0543 106.142L50.1584 111.293L40.72 120.731C37.3701 124.081 33.9938 124.058 30.5881 120.652L3.65976 93.7794Z" stroke="#981DB9" stroke-miterlimit="10"/>
<path d="M81.6266 103.671C85.1117 107.156 85.147 110.612 81.7265 114.035L72.5702 123.192L67.131 117.855L68.5709 116.415L41.8542 89.6429L40.2321 91.309L35.1309 86.1578L44.5693 76.7194C47.9192 73.3695 51.2955 73.393 54.7012 76.7987L81.6266 103.671Z" stroke="#981DB9" stroke-miterlimit="10"/>
<path d="M111.144 60.7083C114.549 57.3026 117.923 57.2791 121.276 60.629L130.714 70.0674L125.613 75.2186L123.991 73.5525L97.2741 100.325L98.7139 101.765L93.2748 107.101L84.1184 97.9449C80.698 94.5245 80.7304 91.0688 84.2184 87.5808L111.144 60.7083Z" stroke="#981DB9" stroke-miterlimit="10"/>
<path d="M137.105 79.4177C133.62 75.9326 133.585 72.477 137.005 69.0536L146.162 59.8973L151.601 65.2336L150.161 66.6734L176.878 93.446L178.5 91.7799L183.601 96.9311L174.163 106.37C170.813 109.719 167.436 109.696 164.031 106.29L137.105 79.4177Z" stroke="#981DB9" stroke-miterlimit="10"/>
<path d="M210.35 84.9362C213.835 88.4212 213.87 91.8769 210.45 95.3002L201.294 104.457L195.855 99.1203L197.294 97.6804L170.578 70.9078L168.956 72.5739L163.854 67.4228L173.293 57.9843C176.643 54.6345 180.019 54.658 183.425 58.0637L210.35 84.9362Z" stroke="#981DB9" stroke-miterlimit="10"/>
<path d="M4.79093 145.532C1.30588 142.047 1.27063 138.591 4.69103 135.168L13.8474 126.011L19.2865 131.347L17.8466 132.787L44.5634 159.56L46.1854 157.894L51.2867 163.045L41.8482 172.483C38.4984 175.833 35.122 175.81 31.7163 172.404L4.79093 145.532Z" stroke="#981DB9" stroke-miterlimit="10"/>
<path d="M78.2121 152.884C81.6971 156.369 81.7324 159.824 78.312 163.248L69.1556 172.404L63.7165 167.068L65.1563 165.628L38.4396 138.855L36.8175 140.521L31.7163 135.37L41.1548 125.932C44.5046 122.582 47.8809 122.605 51.2867 126.011L78.2121 152.884Z" stroke="#981DB9" stroke-miterlimit="10"/>
<path d="M109.592 108.909C112.998 105.503 116.371 105.48 119.724 108.83L129.162 118.268L124.061 123.419L122.439 121.753L95.7222 148.526L97.162 149.966L91.7229 155.302L82.5666 146.146C79.1462 142.725 79.1785 139.269 82.6665 135.781L109.592 108.909Z" stroke="#981DB9" stroke-miterlimit="10"/>
<path d="M137.105 144.505C133.62 141.02 133.585 137.565 137.005 134.141L146.162 124.985L151.601 130.321L150.161 131.761L176.878 158.534L178.5 156.867L183.601 162.019L174.163 171.457C170.813 174.807 167.436 174.783 164.031 171.378L137.105 144.505Z" stroke="#981DB9" stroke-miterlimit="10"/>
<path d="M210.35 150.024C213.835 153.509 213.87 156.964 210.45 160.388L201.294 169.544L195.855 164.208L197.294 162.768L170.578 135.995L168.956 137.661L163.854 132.51L173.293 123.072C176.643 119.722 180.019 119.746 183.425 123.151L210.35 150.024Z" stroke="#981DB9" stroke-miterlimit="10"/>
<path d="M3.6626 202.82C0.177553 199.335 0.1423 195.879 3.5627 192.456L12.719 183.299L18.1582 188.635L16.7183 190.075L43.4351 216.848L45.0571 215.182L50.1583 220.333L40.7199 229.771C37.37 233.121 33.9937 233.098 30.588 229.692L3.6626 202.82Z" stroke="#981DB9" stroke-miterlimit="10"/>
<path d="M79.1054 207.033C82.5905 210.518 82.6257 213.974 79.2053 217.397L70.049 226.554L64.6098 221.217L66.0497 219.778L39.3329 193.005L37.7109 194.671L32.6097 189.52L42.0481 180.082C45.398 176.732 48.7743 176.755 52.18 180.161L79.1054 207.033Z" stroke="#981DB9" stroke-miterlimit="10"/>
<path d="M115.199 148.625C118.605 145.219 121.978 145.196 125.331 148.546L134.77 157.984L129.668 163.135L128.046 161.469L101.33 188.242L102.77 189.682L97.3304 195.018L88.174 185.862C84.7536 182.441 84.786 178.985 88.2739 175.497L115.199 148.625Z" stroke="#981DB9" stroke-miterlimit="10"/>
<path d="M127.385 189.064C123.9 185.579 123.864 182.124 127.285 178.7L136.441 169.544L141.88 174.88L140.441 176.32L167.157 203.093L168.779 201.427L173.881 206.578L164.442 216.016C161.092 219.366 157.716 219.343 154.31 215.937L127.385 189.064Z" stroke="#981DB9" stroke-miterlimit="10"/>
<path d="M205.781 206.509C209.266 209.994 209.301 213.45 205.881 216.873L196.724 226.03L191.285 220.693L192.725 219.254L166.008 192.481L164.386 194.147L159.285 188.996L168.723 179.558C172.073 176.208 175.45 176.231 178.855 179.637L205.781 206.509Z" stroke="#981DB9" stroke-miterlimit="10"/>
<path d="M4.79094 43.1156C1.30589 39.6305 1.27064 36.1748 4.69104 32.7515L13.8474 23.5952L19.2865 28.9314L17.8467 30.3713L44.5634 57.1439L46.1855 55.4778L51.2867 60.629L41.8482 70.0674C38.4984 73.4173 35.122 73.3938 31.7163 69.9881L4.79094 43.1156Z" stroke="#981DB9" stroke-miterlimit="10"/>
<path d="M87.2156 256.723C90.7007 260.208 90.7359 263.664 87.3155 267.087L78.1592 276.244L72.72 270.907L74.1599 269.467L47.4432 242.695L45.8211 244.361L40.7199 239.21L50.1583 229.771C53.5082 226.422 56.8845 226.445 60.2902 229.851L87.2156 256.723Z" stroke="#981DB9" stroke-miterlimit="10"/>
<path d="M111.238 192.56C114.643 189.155 118.017 189.131 121.37 192.481L130.808 201.919L125.707 207.071L124.085 205.404L97.368 232.177L98.8079 233.617L93.3687 238.953L84.2123 229.797C80.7919 226.376 80.8243 222.921 84.3123 219.433L111.238 192.56Z" stroke="#981DB9" stroke-miterlimit="10"/>
<path d="M103.665 247.498C100.18 244.013 100.145 240.558 103.565 237.134L112.722 227.978L118.161 233.314L116.721 234.754L143.438 261.527L145.06 259.861L150.161 265.012L140.723 274.45C137.373 277.8 133.996 277.777 130.591 274.371L103.665 247.498Z" stroke="#981DB9" stroke-miterlimit="10"/>
</g>
</svg>
