<svg width="214" height="278" viewBox="0 0 214 278" fill="none" xmlns="http://www.w3.org/2000/svg">
<g opacity="0.2">
<path d="M75.6829 42.0006C79.1679 45.4857 79.2032 48.9413 75.7828 52.3647L66.6265 61.521L61.1873 56.1847L62.6272 54.7449L35.9104 27.9723L34.2884 29.6384L29.1872 24.4872L38.6256 15.0488C41.9755 11.6989 45.3518 11.7224 48.7575 15.1281L75.6829 42.0006Z" stroke="#981DB9" stroke-miterlimit="10"/>
<path d="M115.208 7.67011C118.613 4.2644 121.987 4.2409 125.34 7.59078L134.778 17.0292L129.677 22.1804L128.055 20.5143L101.338 47.2868L102.778 48.7267L97.3386 54.063L88.1823 44.9067C84.7619 41.4863 84.7943 38.0306 88.2822 34.5426L115.208 7.67011Z" stroke="#981DB9" stroke-miterlimit="10"/>
<path d="M146.27 20.3348C142.785 16.8498 142.75 13.3941 146.17 9.97079L155.326 0.814453L160.766 6.15075L159.326 7.59061L186.042 34.3632L187.664 32.6971L192.766 37.8482L183.327 47.2867C179.977 50.6366 176.601 50.613 173.195 47.2073L146.27 20.3348Z" stroke="#981DB9" stroke-miterlimit="10"/>
<path d="M3.66806 93.3988C0.183013 89.9138 0.14776 86.4581 3.56816 83.0348L12.7245 73.8784L18.1636 79.2148L16.7238 80.6546L43.4405 107.427L45.0626 105.761L50.1667 110.912L40.7283 120.351C37.3784 123.701 34.0021 123.677 30.5964 120.271L3.66806 93.3988Z" stroke="#981DB9" stroke-miterlimit="10"/>
<path d="M81.6349 103.291C85.12 106.776 85.1553 110.231 81.7348 113.655L72.5785 122.811L67.1393 117.475L68.5792 116.035L41.8625 89.2623L40.2404 90.9284L35.1392 85.7772L44.5776 76.3388C47.9275 72.9889 51.3038 73.0124 54.7095 76.4181L81.6349 103.291Z" stroke="#981DB9" stroke-miterlimit="10"/>
<path d="M111.152 60.3277C114.558 56.922 117.931 56.8985 121.284 60.2484L130.722 69.6868L125.621 74.838L123.999 73.1718L97.2824 99.9444L98.7222 101.384L93.2831 106.721L84.1267 97.5642C80.7063 94.1438 80.7387 90.6882 84.2267 87.2002L111.152 60.3277Z" stroke="#981DB9" stroke-miterlimit="10"/>
<path d="M137.114 79.0371C133.629 75.552 133.593 72.0963 137.014 68.673L146.17 59.5167L151.609 64.853L150.169 66.2928L176.886 93.0654L178.508 91.3993L183.609 96.5505L174.171 105.989C170.821 109.339 167.445 109.315 164.039 105.91L137.114 79.0371Z" stroke="#981DB9" stroke-miterlimit="10"/>
<path d="M210.358 84.5555C213.843 88.0406 213.879 91.4963 210.458 94.9196L201.302 104.076L195.863 98.7396L197.303 97.2998L170.586 70.5272L168.964 72.1933L163.863 67.0421L173.301 57.6037C176.651 54.2538 180.027 54.2773 183.433 57.6831L210.358 84.5555Z" stroke="#981DB9" stroke-miterlimit="10"/>
<path d="M4.79923 145.151C1.31418 141.666 1.27893 138.21 4.69933 134.787L13.8557 125.631L19.2948 130.967L17.8549 132.407L44.5717 159.179L46.1937 157.513L51.295 162.664L41.8565 172.103C38.5067 175.453 35.1303 175.429 31.7246 172.023L4.79923 145.151Z" stroke="#981DB9" stroke-miterlimit="10"/>
<path d="M78.2204 152.503C81.7054 155.988 81.7407 159.444 78.3203 162.867L69.1639 172.023L63.7248 166.687L65.1646 165.247L38.4479 138.475L36.8258 140.141L31.7246 134.99L41.1631 125.551C44.5129 122.201 47.8892 122.225 51.295 125.631L78.2204 152.503Z" stroke="#981DB9" stroke-miterlimit="10"/>
<path d="M109.6 108.528C113.006 105.123 116.379 105.099 119.732 108.449L129.171 117.887L124.069 123.039L122.447 121.373L95.7305 148.145L97.1703 149.585L91.7312 154.921L82.5749 145.765C79.1545 142.345 79.1868 138.889 82.6748 135.401L109.6 108.528Z" stroke="#981DB9" stroke-miterlimit="10"/>
<path d="M137.114 144.125C133.629 140.64 133.593 137.184 137.014 133.761L146.17 124.604L151.609 129.941L150.169 131.38L176.886 158.153L178.508 156.487L183.609 161.638L174.171 171.076C170.821 174.426 167.445 174.403 164.039 170.997L137.114 144.125Z" stroke="#981DB9" stroke-miterlimit="10"/>
<path d="M210.358 149.643C213.843 153.128 213.879 156.584 210.458 160.007L201.302 169.163L195.863 163.827L197.303 162.387L170.586 135.615L168.964 137.281L163.863 132.13L173.301 122.691C176.651 119.341 180.027 119.365 183.433 122.771L210.358 149.643Z" stroke="#981DB9" stroke-miterlimit="10"/>
<path d="M3.6709 202.439C0.185853 198.954 0.150601 195.498 3.571 192.075L12.7273 182.919L18.1665 188.255L16.7266 189.695L43.4434 216.467L45.0654 214.801L50.1666 219.952L40.7282 229.391C37.3783 232.741 34.002 232.717 30.5963 229.311L3.6709 202.439Z" stroke="#981DB9" stroke-miterlimit="10"/>
<path d="M79.1137 206.653C82.5988 210.138 82.634 213.593 79.2136 217.017L70.0573 226.173L64.6181 220.837L66.058 219.397L39.3412 192.624L37.7192 194.29L32.618 189.139L42.0564 179.701C45.4063 176.351 48.7826 176.375 52.1883 179.78L79.1137 206.653Z" stroke="#981DB9" stroke-miterlimit="10"/>
<path d="M115.208 148.244C118.613 144.839 121.987 144.815 125.34 148.165L134.778 157.603L129.677 162.755L128.055 161.089L101.338 187.861L102.778 189.301L97.3387 194.637L88.1823 185.481C84.7619 182.061 84.7943 178.605 88.2822 175.117L115.208 148.244Z" stroke="#981DB9" stroke-miterlimit="10"/>
<path d="M127.393 188.684C123.908 185.199 123.873 181.743 127.293 178.32L136.449 169.163L141.889 174.5L140.449 175.94L167.166 202.712L168.788 201.046L173.889 206.197L164.45 215.636C161.1 218.986 157.724 218.962 154.318 215.556L127.393 188.684Z" stroke="#981DB9" stroke-miterlimit="10"/>
<path d="M205.789 206.129C209.274 209.614 209.309 213.069 205.889 216.493L196.733 225.649L191.293 220.313L192.733 218.873L166.017 192.1L164.395 193.767L159.293 188.615L168.732 179.177C172.082 175.827 175.458 175.851 178.864 179.256L205.789 206.129Z" stroke="#981DB9" stroke-miterlimit="10"/>
<path d="M4.79924 42.7349C1.3142 39.2499 1.27894 35.7942 4.69935 32.3709L13.8557 23.2146L19.2948 28.5508L17.855 29.9907L44.5717 56.7633L46.1938 55.0972L51.295 60.2483L41.8565 69.6868C38.5067 73.0367 35.1303 73.0131 31.7246 69.6074L4.79924 42.7349Z" stroke="#981DB9" stroke-miterlimit="10"/>
<path d="M87.2239 256.343C90.709 259.828 90.7442 263.283 87.3238 266.707L78.1675 275.863L72.7283 270.527L74.1682 269.087L47.4515 242.314L45.8294 243.98L40.7282 238.829L50.1666 229.391C53.5165 226.041 56.8928 226.064 60.2985 229.47L87.2239 256.343Z" stroke="#981DB9" stroke-miterlimit="10"/>
<path d="M111.246 192.18C114.652 188.774 118.025 188.751 121.378 192.1L130.816 201.539L125.715 206.69L124.093 205.024L97.3763 231.796L98.8162 233.236L93.377 238.573L84.2206 229.416C80.8002 225.996 80.8326 222.54 84.3206 219.052L111.246 192.18Z" stroke="#981DB9" stroke-miterlimit="10"/>
<path d="M103.674 247.118C100.189 243.633 100.153 240.177 103.574 236.754L112.73 227.597L118.169 232.934L116.729 234.373L143.446 261.146L145.068 259.48L150.169 264.631L140.731 274.07C137.381 277.419 134.005 277.396 130.599 273.99L103.674 247.118Z" stroke="#981DB9" stroke-miterlimit="10"/>
</g>
</svg>
