<svg width="35" height="35" viewBox="0 0 35 35" fill="none" xmlns="http://www.w3.org/2000/svg">
<path d="M23.2691 15.6293C23.9872 15.6293 24.5975 15.3779 25.1001 14.8753C25.6027 14.3727 25.854 13.7624 25.854 13.0443C25.854 12.3263 25.6027 11.716 25.1001 11.2134C24.5975 10.7107 23.9872 10.4594 23.2691 10.4594C22.5511 10.4594 21.9408 10.7107 21.4381 11.2134C20.9355 11.716 20.6842 12.3263 20.6842 13.0443C20.6842 13.7624 20.9355 14.3727 21.4381 14.8753C21.9408 15.3779 22.5511 15.6293 23.2691 15.6293ZM11.2062 15.6293C11.9242 15.6293 12.5345 15.3779 13.0372 14.8753C13.5398 14.3727 13.7911 13.7624 13.7911 13.0443C13.7911 12.3263 13.5398 11.716 13.0372 11.2134C12.5345 10.7107 11.9242 10.4594 11.2062 10.4594C10.4882 10.4594 9.87783 10.7107 9.37521 11.2134C8.87258 11.716 8.62127 12.3263 8.62127 13.0443C8.62127 13.7624 8.87258 14.3727 9.37521 14.8753C9.87783 15.3779 10.4882 15.6293 11.2062 15.6293ZM17.2377 19.9374C15.2846 19.9374 13.5111 20.4903 11.917 21.5961C10.323 22.7019 9.16698 24.1595 8.44894 25.9689H26.0264C25.3083 24.1595 24.1523 22.7019 22.5583 21.5961C20.9642 20.4903 19.1907 19.9374 17.2377 19.9374ZM17.2377 34.5853C14.8538 34.5853 12.6135 34.1329 10.5169 33.2282C8.42022 32.3235 6.59642 31.0957 5.04547 29.5447C3.49452 27.9938 2.26668 26.17 1.36196 24.0733C0.457243 21.9767 0.00488281 19.7364 0.00488281 17.3525C0.00488281 14.9687 0.457243 12.7284 1.36196 10.6317C2.26668 8.53509 3.49452 6.71129 5.04547 5.16034C6.59642 3.60939 8.42022 2.38155 10.5169 1.47683C12.6135 0.572111 14.8538 0.119751 17.2377 0.119751C19.6215 0.119751 21.8618 0.572111 23.9584 1.47683C26.0551 2.38155 27.8789 3.60939 29.4299 5.16034C30.9808 6.71129 32.2086 8.53509 33.1134 10.6317C34.0181 12.7284 34.4704 14.9687 34.4704 17.3525C34.4704 19.7364 34.0181 21.9767 33.1134 24.0733C32.2086 26.17 30.9808 27.9938 29.4299 29.5447C27.8789 31.0957 26.0551 32.3235 23.9584 33.2282C21.8618 34.1329 19.6215 34.5853 17.2377 34.5853ZM17.2377 31.1388C21.0863 31.1388 24.3462 29.8032 27.0173 27.1321C29.6883 24.461 31.0239 21.2012 31.0239 17.3525C31.0239 13.5039 29.6883 10.244 27.0173 7.57293C24.3462 4.90185 21.0863 3.56631 17.2377 3.56631C13.389 3.56631 10.1291 4.90185 7.45806 7.57293C4.78698 10.244 3.45144 13.5039 3.45144 17.3525C3.45144 21.2012 4.78698 24.461 7.45806 27.1321C10.1291 29.8032 13.389 31.1388 17.2377 31.1388Z" fill="url(#paint0_linear_615_2350)"/>
<defs>
<linearGradient id="paint0_linear_615_2350" x1="0.00488281" y1="17.5332" x2="34.4704" y2="17.5332" gradientUnits="userSpaceOnUse">
<stop stop-color="#981DB9"/>
<stop offset="1" stop-color="#0F76CE"/>
</linearGradient>
</defs>
</svg>
