<svg width="19" height="20" viewBox="0 0 19 20" fill="none" xmlns="http://www.w3.org/2000/svg">
<path d="M2.63477 20.0037C2.08477 20.0037 1.61393 19.8078 1.22227 19.4162C0.830599 19.0245 0.634766 18.5537 0.634766 18.0037V4.00366C0.634766 3.45366 0.830599 2.98283 1.22227 2.59116C1.61393 2.1995 2.08477 2.00366 2.63477 2.00366H6.83477C7.0681 1.40366 7.43477 0.920329 7.93477 0.553662C8.43477 0.186995 9.00143 0.00366211 9.63477 0.00366211C10.2681 0.00366211 10.8348 0.186995 11.3348 0.553662C11.8348 0.920329 12.2014 1.40366 12.4348 2.00366H16.6348C17.1848 2.00366 17.6556 2.1995 18.0473 2.59116C18.4389 2.98283 18.6348 3.45366 18.6348 4.00366V18.0037C18.6348 18.5537 18.4389 19.0245 18.0473 19.4162C17.6556 19.8078 17.1848 20.0037 16.6348 20.0037H2.63477ZM9.63477 3.25366C9.85143 3.25366 10.0306 3.18283 10.1723 3.04116C10.3139 2.8995 10.3848 2.72033 10.3848 2.50366C10.3848 2.287 10.3139 2.10783 10.1723 1.96616C10.0306 1.8245 9.85143 1.75366 9.63477 1.75366C9.4181 1.75366 9.23893 1.8245 9.09727 1.96616C8.9556 2.10783 8.88477 2.287 8.88477 2.50366C8.88477 2.72033 8.9556 2.8995 9.09727 3.04116C9.23893 3.18283 9.4181 3.25366 9.63477 3.25366ZM2.63477 16.8537C3.53477 15.9703 4.5806 15.2745 5.77227 14.7662C6.96393 14.2578 8.25143 14.0037 9.63477 14.0037C11.0181 14.0037 12.3056 14.2578 13.4973 14.7662C14.6889 15.2745 15.7348 15.9703 16.6348 16.8537V4.00366H2.63477V16.8537ZM9.63477 12.0037C10.6014 12.0037 11.4264 11.662 12.1098 10.9787C12.7931 10.2953 13.1348 9.47033 13.1348 8.50366C13.1348 7.537 12.7931 6.712 12.1098 6.02866C11.4264 5.34533 10.6014 5.00366 9.63477 5.00366C8.6681 5.00366 7.8431 5.34533 7.15977 6.02866C6.47643 6.712 6.13477 7.537 6.13477 8.50366C6.13477 9.47033 6.47643 10.2953 7.15977 10.9787C7.8431 11.662 8.6681 12.0037 9.63477 12.0037ZM4.63477 18.0037H14.6348V17.7537C13.9348 17.1703 13.1598 16.7328 12.3098 16.4412C11.4598 16.1495 10.5681 16.0037 9.63477 16.0037C8.70143 16.0037 7.80977 16.1495 6.95977 16.4412C6.10977 16.7328 5.33477 17.1703 4.63477 17.7537V18.0037ZM9.63477 10.0037C9.2181 10.0037 8.86393 9.85783 8.57227 9.56616C8.2806 9.2745 8.13477 8.92033 8.13477 8.50366C8.13477 8.087 8.2806 7.73283 8.57227 7.44116C8.86393 7.1495 9.2181 7.00366 9.63477 7.00366C10.0514 7.00366 10.4056 7.1495 10.6973 7.44116C10.9889 7.73283 11.1348 8.087 11.1348 8.50366C11.1348 8.92033 10.9889 9.2745 10.6973 9.56616C10.4056 9.85783 10.0514 10.0037 9.63477 10.0037Z" fill="white"/>
</svg>
