<svg width="23" height="22" viewBox="0 0 23 22" fill="none" xmlns="http://www.w3.org/2000/svg">
<path d="M11.7301 21.9548C10.222 21.9548 8.80474 21.6687 7.47833 21.0963C6.15192 20.524 4.99813 19.7472 4.01695 18.766C3.03578 17.7848 2.25901 16.631 1.68666 15.3046C1.1143 13.9782 0.828125 12.561 0.828125 11.0529C0.828125 9.54475 1.1143 8.12749 1.68666 6.80109C2.25901 5.47468 3.03578 4.32089 4.01695 3.33971C4.99813 2.35853 6.15192 1.58176 7.47833 1.00941C8.80474 0.437056 10.222 0.150879 11.7301 0.150879C13.2382 0.150879 14.6555 0.437056 15.9819 1.00941C17.3083 1.58176 18.4621 2.35853 19.4433 3.33971C20.4244 4.32089 21.2012 5.47468 21.7736 6.80109C22.3459 8.12749 22.6321 9.54475 22.6321 11.0529C22.6321 12.561 22.3459 13.9782 21.7736 15.3046C21.2012 16.631 20.4244 17.7848 19.4433 18.766C18.4621 19.7472 17.3083 20.524 15.9819 21.0963C14.6555 21.6687 13.2382 21.9548 11.7301 21.9548ZM17.1811 8.32736L18.6529 7.83677L19.0889 6.36501C18.5075 5.49285 17.808 4.74334 16.9903 4.11647C16.1727 3.48961 15.2732 3.02173 14.2921 2.71284L12.8203 3.74853V5.27481L17.1811 8.32736ZM6.27911 8.32736L10.6399 5.27481V3.74853L9.16814 2.71284C8.18696 3.02173 7.28755 3.48961 6.4699 4.11647C5.65225 4.74334 4.95271 5.49285 4.37127 6.36501L4.80735 7.83677L6.27911 8.32736ZM5.13441 16.7219L6.38813 16.6129L7.20578 15.1411L5.625 10.3987L4.09872 9.85364L3.00852 10.6713C3.00852 11.8523 3.17205 12.9289 3.49911 13.901C3.82617 14.8731 4.37127 15.8134 5.13441 16.7219ZM11.7301 19.7744C12.2025 19.7744 12.6659 19.7381 13.1201 19.6654C13.5744 19.5927 14.0195 19.4837 14.4556 19.3384L15.2187 17.7031L14.5101 16.5038H8.9501L8.24147 17.7031L9.00461 19.3384C9.44069 19.4837 9.88585 19.5927 10.3401 19.6654C10.7944 19.7381 11.2577 19.7744 11.7301 19.7744ZM9.27716 14.3235H14.183L15.7093 9.96266L11.7301 7.18265L7.80539 9.96266L9.27716 14.3235ZM18.3258 16.7219C19.0889 15.8134 19.634 14.8731 19.9611 13.901C20.2882 12.9289 20.4517 11.8523 20.4517 10.6713L19.3615 9.90815L17.8352 10.3987L16.2544 15.1411L17.0721 16.6129L18.3258 16.7219Z" fill="white"/>
</svg>
